<svg width="100" height="100" viewBox="0 0 100 100" fill="none" xmlns="http://www.w3.org/2000/svg">
<path d="M36.9687 15.4688C41.9415 15.4672 46.8203 16.8225 51.0798 19.3886C55.3392 21.9547 58.8178 25.6344 61.1406 30.0313C63.9938 28.3632 67.1933 27.3758 70.4903 27.146C73.7873 26.9162 77.0928 27.4502 80.1498 28.7063C83.2068 29.9625 85.9327 31.907 88.1156 34.3885C90.2985 36.87 91.8794 39.8217 92.7354 43.014C93.5914 46.2062 93.6994 49.5528 93.0509 52.7936C92.4025 56.0344 91.0151 59.0818 88.9968 61.6989C86.9784 64.316 84.3835 66.4322 81.4138 67.8828C78.4442 69.3334 75.1799 70.0793 71.875 70.0625L36.8906 70.1563C29.6386 70.1563 22.6836 67.2754 17.5557 62.1474C12.4277 57.0195 9.54687 50.0645 9.54688 42.8125C9.54687 35.5605 12.4277 28.6055 17.5557 23.4776C22.6836 18.3496 29.6386 15.4688 36.8906 15.4688H36.9687Z" fill="url(#paint0_linear_8_4936)"/>
<path d="M92.6525 54.3663C95.8453 42.9384 89.1696 31.086 77.7417 27.8932C66.3139 24.7003 54.4615 31.3761 51.2686 42.8039C48.0758 54.2318 54.7515 66.0842 66.1794 69.277C77.6072 72.4699 89.4596 65.7941 92.6525 54.3663Z" fill="url(#paint1_linear_8_4936)"/>
<path d="M60.7656 62.7969L57.4375 81.9375H64.0937L60.7656 96.0781L76.5781 76.1094H69.0937L75.75 62.7969H60.7656Z" fill="#FCFC07"/>
<path d="M40.375 77.125V78.6875" stroke="#0BAEFF" stroke-width="3" stroke-miterlimit="10" stroke-linecap="round"/>
<path d="M31 74V75.5625" stroke="#0BAEFF" stroke-width="3" stroke-miterlimit="10" stroke-linecap="round"/>
<path d="M49.75 74V75.5625" stroke="#0BAEFF" stroke-width="3" stroke-miterlimit="10" stroke-linecap="round"/>
<path d="M49.75 83.375V84.9375" stroke="#0BAEFF" stroke-width="3" stroke-miterlimit="10" stroke-linecap="round"/>
<path d="M31 83.375V84.9375" stroke="#0BAEFF" stroke-width="3" stroke-miterlimit="10" stroke-linecap="round"/>
<path d="M40.375 86.5V88.0625" stroke="#0BAEFF" stroke-width="3" stroke-miterlimit="10" stroke-linecap="round"/>
<path d="M54.0677 38C55.115 38.0126 56.1151 38.4373 56.8512 39.1821C57.5873 39.9269 58.0001 40.9318 58 41.9788C58 43.034 57.5807 44.046 56.8343 44.7922C56.0878 45.5384 55.0755 45.9576 54.0199 45.9576H39.7761C38.5094 45.9576 37.2946 46.4606 36.3989 47.356C35.5032 48.2514 35 49.4658 35 50.7321C35 51.9984 35.5032 53.2128 36.3989 54.1082C37.2946 55.0036 38.5094 55.5066 39.7761 55.5066H52.0299C52.8743 55.5066 53.6842 55.842 54.2813 56.4389C54.8785 57.0358 55.2139 57.8455 55.2139 58.6897V58.817C55.2139 59.6612 54.8785 60.4708 54.2813 61.0677C53.6842 61.6646 52.8743 62 52.0299 62H49.2438" stroke="#A5A9AA" stroke-width="3" stroke-miterlimit="10" stroke-linecap="round"/>
<path d="M64.25 57.25C65.0788 57.25 65.8737 56.9208 66.4597 56.3347C67.0458 55.7487 67.375 54.9538 67.375 54.125C67.375 53.2962 67.0458 52.5013 66.4597 51.9153C65.8737 51.3292 65.0788 51 64.25 51H58" stroke="#A5A9AA" stroke-width="3" stroke-miterlimit="10" stroke-linecap="round"/>
<defs>
<linearGradient id="paint0_linear_8_4936" x1="30.0781" y1="72.4844" x2="63.0313" y2="29.8125" gradientUnits="userSpaceOnUse">
<stop stop-color="#F2F2F2"/>
<stop offset="1" stop-color="#CFCFCF"/>
</linearGradient>
<linearGradient id="paint1_linear_8_4936" x1="80.7307" y1="40.9445" x2="55.8382" y2="62.624" gradientUnits="userSpaceOnUse">
<stop offset="0.02" stop-color="white"/>
<stop offset="1" stop-color="white" stop-opacity="0"/>
</linearGradient>
</defs>
</svg>
