<svg width="100" height="100" viewBox="0 0 100 100" fill="none" xmlns="http://www.w3.org/2000/svg">
<path d="M78.125 32.3594C74.8863 32.0974 71.7479 31.1111 68.9416 29.4733C66.1353 27.8354 63.733 25.588 61.912 22.897C60.0909 20.206 58.8979 17.1402 58.4209 13.9262C57.9439 10.7121 58.1952 7.43198 59.1562 4.3281C59.2052 4.15143 59.2013 3.96426 59.145 3.78978C59.0887 3.61529 58.9825 3.46114 58.8395 3.3464C58.6965 3.23167 58.523 3.16138 58.3404 3.14424C58.1579 3.1271 57.9743 3.16387 57.8124 3.24998C54.9061 4.89771 52.4197 7.19464 50.5472 9.96158C48.6748 12.7285 47.4669 15.8906 47.0179 19.2013C46.5688 22.5119 46.8907 25.8816 47.9584 29.0473C49.0261 32.2131 50.8108 35.0893 53.1732 37.4518C55.5356 39.8142 58.4119 41.5989 61.5776 42.6666C64.7434 43.7343 68.113 44.0561 71.4236 43.6071C74.7343 43.158 77.8964 41.9501 80.6634 40.0777C83.4303 38.2052 85.7272 35.7188 87.3749 32.8125C87.4766 32.6498 87.526 32.4599 87.5163 32.2683C87.5066 32.0767 87.4384 31.8928 87.3209 31.7412C87.2034 31.5896 87.0422 31.4777 86.859 31.4206C86.6759 31.3635 86.4797 31.3639 86.2968 31.4219C83.6574 32.2517 80.8838 32.5698 78.125 32.3594Z" fill="#FCFC07"/>
<path d="M36.7188 24.8437C41.6994 24.8336 46.5881 26.1849 50.8566 28.7515C55.125 31.3181 58.6109 35.0024 60.9375 39.4062C63.7878 37.7397 66.9838 36.7526 70.2775 36.5215C73.5711 36.2903 76.8737 36.8214 79.9288 38.0735C82.9839 39.3256 85.7093 41.265 87.8935 43.7411C90.0776 46.2172 91.6616 49.1634 92.5225 52.3509C93.3835 55.5384 93.4982 58.8815 92.8578 62.1205C92.2173 65.3595 90.8389 68.4074 88.8297 71.0274C86.8204 73.6474 84.2344 75.769 81.2722 77.2276C78.3102 78.6861 75.0517 79.4423 71.75 79.4375L36.7188 79.5312C29.4667 79.5312 22.5117 76.6504 17.3838 71.5224C12.2559 66.3945 9.375 59.4395 9.375 52.1875C9.375 44.9355 12.2559 37.9805 17.3838 32.8525C22.5117 27.7246 29.4667 24.8437 36.7188 24.8437Z" fill="url(#paint0_linear_8_4911)"/>
<path d="M92.3957 63.7235C95.5885 52.2957 88.9127 40.4433 77.4849 37.2504C66.0571 34.0575 54.2046 40.7333 51.0118 52.1612C47.8189 63.589 54.4947 75.4414 65.9225 78.6343C77.3504 81.8271 89.2028 75.1514 92.3957 63.7235Z" fill="url(#paint1_linear_8_4911)"/>
<path d="M54.3037 66L51 84.9789H57.6073L54.3037 99L70 79.2H62.5706L69.178 66H54.3037Z" fill="#FCFC07"/>
<path d="M35.7388 82L34 91.777H37.4775L35.7388 99L44 88.8H40.0898L43.5673 82H35.7388Z" fill="#FCFC07"/>
<defs>
<linearGradient id="paint0_linear_8_4911" x1="29.8125" y1="81.8594" x2="62.7656" y2="39.1875" gradientUnits="userSpaceOnUse">
<stop stop-color="#F2F2F2"/>
<stop offset="1" stop-color="#CFCFCF"/>
</linearGradient>
<linearGradient id="paint1_linear_8_4911" x1="80.4889" y1="50.3059" x2="55.5856" y2="71.9661" gradientUnits="userSpaceOnUse">
<stop offset="0.02" stop-color="white"/>
<stop offset="1" stop-color="white" stop-opacity="0"/>
</linearGradient>
</defs>
</svg>
